<svg width="22" height="23" viewBox="0 0 22 23" fill="none" xmlns="http://www.w3.org/2000/svg">
<path d="M10.567 2.75C10.7594 2.41667 11.2406 2.41667 11.433 2.75L19.2272 16.25C19.4197 16.5833 19.1791 17 18.7942 17H3.20577C2.82087 17 2.58031 16.5833 2.77276 16.25L10.567 2.75Z" stroke="#DA2128"/>
<path d="M11.3535 12.0322H10.8408L10.5918 6.86133H11.6025L11.3535 12.0322ZM10.5039 13.4824C10.5039 13.0397 10.6992 12.8184 11.0898 12.8184C11.2786 12.8184 11.4235 12.8753 11.5244 12.9893C11.6286 13.1032 11.6807 13.2676 11.6807 13.4824C11.6807 13.6908 11.6286 13.8535 11.5244 13.9707C11.4202 14.0846 11.2754 14.1416 11.0898 14.1416C10.9206 14.1416 10.7806 14.0911 10.6699 13.9902C10.5592 13.8861 10.5039 13.7168 10.5039 13.4824Z" fill="#DA2128"/>
</svg>
