<svg width="12" height="12" viewBox="0 0 12 12" fill="none" xmlns="http://www.w3.org/2000/svg">
<path fill-rule="evenodd" clip-rule="evenodd" d="M8.16178 1.23281C7.86482 0.935847 8.0441 0.427241 8.46164 0.382147L11.3826 0.0666886C11.6999 0.0324189 11.9676 0.300174 11.9333 0.617485L11.6179 3.53839C11.5728 3.95593 11.0642 4.13522 10.7672 3.83826L10.1716 3.24264C9.97635 3.04738 9.65977 3.04738 9.4645 3.24264L6.70714 6C6.51188 6.19526 6.1953 6.19526 6.00004 6C5.80478 5.80474 5.80478 5.48815 6.00004 5.29289L8.7574 2.53553C8.95266 2.34027 8.95266 2.02369 8.7574 1.82843L8.16178 1.23281Z" fill="#8C8C8C"/>
<path d="M3 1C1.89543 1 1 1.89543 1 3V9C1 10.1046 1.89543 11 3 11H9C10.1046 11 11 10.1046 11 9V5.5C11 5.22386 11.2239 5 11.5 5C11.7761 5 12 5.22386 12 5.5V9C12 10.6569 10.6569 12 9 12H3C1.34315 12 0 10.6569 0 9V3C0 1.34315 1.34315 0 3 0H6.5C6.77614 0 7 0.223858 7 0.5C7 0.776142 6.77614 1 6.5 1H3Z" fill="#8C8C8C"/>
</svg>
