<?xml version="1.0" standalone="no"?>
<!DOCTYPE svg PUBLIC "-//W3C//DTD SVG 20010904//EN"
 "http://www.w3.org/TR/2001/REC-SVG-20010904/DTD/svg10.dtd">
<svg version="1.0" xmlns="http://www.w3.org/2000/svg"
 width="600.000000pt" height="271.000000pt" viewBox="0 0 600.000000 271.000000"
 preserveAspectRatio="xMidYMid meet">
<metadata>
Created by potrace 1.15, written by Peter Selinger 2001-2017
</metadata>
<g transform="translate(0.000000,271.000000) scale(0.100000,-0.100000)"
fill="#000000" stroke="none">
<path d="M0 1355 l0 -1355 243 1 c236 1 240 1 159 14 -46 7 -138 25 -204 41
l-120 28 153 33 c84 18 155 36 158 39 3 3 -20 54 -52 113 -31 60 -57 111 -57
114 0 4 31 -13 69 -38 254 -164 489 -237 773 -238 81 -1 146 -2 145 -3 -14
-12 -177 -61 -262 -79 l-110 -24 468 0 467 -1 41 42 c167 173 235 433 156 599
-97 202 -374 286 -510 154 -83 -81 -108 -213 -57 -305 35 -63 95 -102 165
-108 67 -5 105 9 145 54 61 70 64 157 6 219 -29 30 -40 35 -78 35 -64 0 -98
-33 -98 -94 0 -58 31 -96 86 -105 l39 -6 -38 -19 c-90 -42 -187 29 -187 137 0
18 12 57 26 85 51 102 162 135 270 79 126 -65 177 -192 129 -324 -63 -174
-221 -247 -398 -184 -289 101 -335 481 -82 673 78 59 145 82 245 82 97 0 154
-19 264 -85 37 -22 69 -39 71 -37 1 2 5 25 8 51 4 46 3 50 -27 68 -118 72
-271 107 -389 89 -355 -54 -547 -470 -344 -747 48 -65 94 -103 180 -149 l58
-31 -40 -12 c-133 -39 -331 -33 -499 15 -304 88 -699 340 -903 577 l-59 68 0
150 0 149 81 -41 c45 -22 83 -39 85 -36 2 2 -1 28 -8 58 -11 54 -12 55 -82 95
l-71 39 -3 299 c-2 241 0 301 11 310 74 61 186 138 247 170 41 21 77 40 79 42
2 2 -7 13 -21 23 -38 30 -132 149 -166 211 -47 84 -63 158 -63 298 l0 122 -50
0 -49 0 0 -1355z m87 792 c15 -22 43 -50 62 -63 20 -13 31 -24 24 -24 -6 0
-45 -25 -87 -55 l-76 -54 0 177 1 177 25 -60 c13 -33 37 -77 51 -98z m22
-1775 c50 -78 91 -144 91 -147 0 -3 -43 -5 -95 -5 l-95 0 0 152 c0 83 2 149 4
147 2 -2 45 -68 95 -147z"/>
<path d="M187 2633 c8 -43 16 -80 18 -82 4 -4 40 25 133 111 l54 48 -110 0
-110 0 15 -77z"/>
<path d="M476 2658 c4 -29 7 -92 7 -140 l-1 -86 52 18 c28 10 104 39 169 65
108 43 125 54 195 121 l77 73 -253 1 -254 0 8 -52z"/>
<path d="M784 2473 c-252 -249 -312 -323 -421 -515 -105 -185 -168 -389 -180
-579 -22 -384 206 -828 541 -1050 158 -104 348 -159 553 -159 102 0 160 11
123 24 -8 3 -71 7 -140 9 -133 5 -194 18 -319 68 -300 120 -514 393 -613 779
-41 164 -47 301 -18 440 83 402 354 743 892 1121 l141 99 -160 0 -159 0 -240
-237z"/>
<path d="M2444 2677 c60 -48 152 -169 191 -251 124 -258 91 -559 -88 -802
l-44 -60 -6 -109 -6 -110 43 48 c24 27 74 95 112 152 40 62 71 99 75 92 3 -7
9 -50 13 -97 3 -47 9 -106 12 -131 l6 -47 -98 -6 c-55 -4 -115 -10 -134 -14
-33 -7 -34 -9 -46 -72 -6 -36 -10 -66 -9 -68 2 -2 84 2 182 8 99 7 187 11 197
9 13 -3 6 -17 -36 -66 -29 -34 -74 -80 -100 -103 l-47 -40 -101 55 c-55 30
-105 55 -110 55 -11 0 -43 -97 -37 -114 7 -18 288 -156 436 -215 l123 -48
-103 -7 c-203 -14 -522 -65 -606 -97 -26 -10 -28 -2 -13 51 9 30 6 43 -19 95
-17 33 -46 75 -65 94 -35 34 -36 34 -76 21 -23 -7 -43 -17 -46 -22 -3 -5 19
-35 49 -68 66 -71 107 -141 139 -235 20 -62 23 -88 22 -225 -1 -130 -5 -171
-26 -252 l-25 -98 1744 0 c1657 0 1744 1 1739 18 -9 27 -33 152 -41 207 l-7
50 29 -25 c15 -13 46 -41 68 -61 70 -64 236 -189 251 -189 11 0 14 14 14 59
l0 60 -65 57 -66 58 66 24 c62 23 65 26 65 58 0 19 -2 34 -5 34 -3 0 -33 -22
-66 -50 -33 -27 -63 -50 -67 -50 -4 0 -38 31 -75 68 l-68 69 43 12 c62 18 125
57 186 114 l52 50 0 189 0 189 -47 21 c-201 89 -441 -180 -460 -515 -3 -53 -8
-95 -10 -93 -3 2 -22 53 -43 113 -37 105 -38 107 -50 78 -43 -112 -86 -217
-106 -256 l-23 -46 -146 73 c-140 70 -378 156 -467 170 l-42 7 88 24 c314 83
512 264 587 538 53 196 -21 373 -194 466 -52 27 -75 34 -142 37 -121 6 -190
-31 -243 -132 -37 -71 -39 -182 -3 -239 70 -113 217 -141 300 -58 52 52 69
120 45 179 -30 76 -108 108 -168 68 -37 -24 -50 -62 -37 -107 14 -47 44 -72
85 -73 40 -1 36 -13 -11 -33 -57 -23 -127 7 -159 69 -32 62 -6 169 54 220 65
55 140 60 227 17 172 -86 193 -301 45 -449 -62 -63 -104 -80 -197 -80 -227 0
-403 209 -363 432 39 214 235 364 450 345 79 -8 221 -74 292 -136 25 -23 49
-41 52 -41 3 0 6 10 6 23 0 12 7 34 14 49 14 27 13 28 -32 61 -97 71 -224 123
-326 133 -209 21 -409 -95 -504 -293 -36 -77 -37 -80 -37 -198 0 -115 1 -123
32 -188 40 -85 123 -168 213 -216 l65 -35 -45 -14 c-25 -8 -104 -17 -180 -19
-215 -8 -349 28 -615 162 -429 217 -772 573 -895 929 l-19 57 27 -21 c82 -63
180 -124 281 -174 62 -32 114 -56 116 -54 2 2 -2 28 -9 58 l-12 54 -110 66
c-176 105 -334 221 -334 244 0 6 26 49 57 96 75 111 284 320 388 389 44 29 82
55 84 57 2 2 -32 4 -77 4 l-81 0 -78 -61 c-93 -73 -318 -298 -388 -387 l-49
-63 -17 83 c-33 160 -84 295 -147 390 l-25 38 -106 0 -106 -1 39 -32z m456
-917 c34 -74 77 -161 96 -192 l35 -57 -22 -43 c-41 -80 -111 -198 -118 -198
-4 0 -17 123 -29 273 -13 149 -25 292 -29 317 -3 25 -3 43 0 40 3 -3 33 -66
67 -140z m390 -598 c78 -123 140 -225 137 -228 -5 -6 -578 -6 -584 -1 -1 2 18
28 43 57 92 111 185 261 228 369 9 24 21 40 25 35 4 -5 72 -109 151 -232z m15
-532 c391 -28 756 -92 1155 -201 195 -53 513 -160 503 -170 -10 -9 -266 -92
-348 -113 -78 -19 -293 -56 -332 -56 -28 0 -32 4 -43 47 -30 120 -132 244
-256 310 -86 46 -235 93 -312 100 -37 3 -92 0 -124 -6 -227 -47 -280 -313 -79
-400 117 -50 239 -34 306 40 20 22 35 42 33 44 -2 2 -28 -3 -58 -11 -69 -18
-94 -18 -160 2 -185 55 -122 218 85 217 51 0 81 -6 112 -21 47 -24 83 -65 83
-94 0 -11 12 -29 26 -41 59 -46 63 -133 7 -177 -22 -17 -40 -20 -137 -20 -316
0 -819 143 -1166 332 -98 53 -260 158 -260 168 0 11 212 40 390 53 107 8 446
6 575 -3z"/>
<path d="M3049 554 c-156 -41 -352 -53 -428 -27 -11 4 -13 3 -6 -4 6 -5 39
-20 75 -33 91 -32 234 -105 305 -155 l60 -42 0 61 c1 66 23 119 77 189 34 42
34 42 -83 11z"/>
<path d="M3567 2598 c-188 -379 -196 -715 -26 -1073 141 -299 393 -531 660
-609 131 -38 347 -58 417 -40 49 14 16 22 -110 27 -189 7 -336 53 -491 153
-326 211 -547 736 -473 1127 29 151 94 311 185 450 l51 77 -79 0 -79 0 -55
-112z"/>
<path d="M4080 2702 c0 -5 37 -21 83 -36 179 -58 381 -178 555 -330 l77 -68
12 39 c6 21 12 45 12 55 1 25 -126 184 -217 271 l-82 77 -220 0 c-121 0 -220
-4 -220 -8z"/>
<path d="M4701 2706 c2 -2 46 -38 96 -80 l93 -76 39 80 40 80 -136 0 c-75 0
-134 -2 -132 -4z"/>
<path d="M5265 2698 c-12 -35 -145 -840 -145 -878 0 -4 35 -24 78 -45 42 -20
101 -55 131 -77 l54 -41 86 27 c47 15 97 30 111 34 20 6 29 20 48 77 12 39 25
86 28 106 l6 36 -73 6 c-80 5 -239 -7 -297 -23 -20 -5 -38 -7 -41 -5 -9 9 66
220 122 343 52 116 178 337 218 384 19 23 19 23 2 -17 -23 -57 -23 -186 1
-250 20 -54 86 -165 99 -165 9 0 9 11 -4 155 -10 118 -27 224 -49 304 l-11 41
-180 0 c-135 0 -181 -3 -184 -12z"/>
<path d="M5674 2695 c27 -70 76 -484 62 -521 -8 -22 91 -106 222 -188 l42 -26
0 375 0 375 -166 0 c-142 0 -165 -2 -160 -15z"/>
<path d="M1932 2652 c-13 -9 -125 -262 -118 -269 2 -2 19 -1 37 2 32 6 38 15
96 136 53 110 59 129 43 129 -10 0 -24 2 -32 5 -7 3 -19 1 -26 -3z"/>
<path d="M3974 2592 c-65 -77 -107 -133 -102 -137 2 -2 39 -11 83 -20 157 -32
313 -96 442 -182 93 -61 222 -192 288 -292 l60 -92 8 117 8 116 -56 68 c-160
196 -379 361 -577 434 -111 41 -109 41 -154 -12z"/>
<path d="M2048 2548 c-48 -88 -73 -146 -66 -153 2 -2 37 34 77 80 40 47 77 85
81 85 5 0 14 -9 20 -20 15 -28 35 -25 59 9 l21 29 -65 26 c-36 14 -69 26 -73
26 -5 0 -29 -37 -54 -82z"/>
<path d="M2272 2487 c-18 -18 -32 -37 -32 -41 0 -6 59 -111 75 -134 2 -2 18 6
36 16 19 11 51 25 71 32 35 11 37 13 26 33 -16 31 -116 127 -131 127 -7 0 -27
-15 -45 -33z"/>
<path d="M3792 2333 c-42 -81 -104 -263 -89 -263 2 0 37 17 78 38 41 21 84 41
96 44 l22 6 -24 75 c-13 42 -26 94 -30 116 -4 23 -10 41 -14 41 -5 0 -22 -26
-39 -57z"/>
<path d="M3860 2371 c0 -5 33 -40 73 -78 41 -37 156 -147 258 -243 101 -96
228 -210 282 -254 106 -84 103 -84 161 -41 18 14 18 16 3 57 -53 138 -204 311
-350 402 -96 60 -231 119 -333 146 -88 23 -94 23 -94 11z"/>
<path d="M1173 2283 c-109 -82 -234 -188 -291 -246 l-43 -44 88 -28 c175 -57
383 -180 548 -324 l80 -70 14 32 c12 28 11 40 -3 92 -52 190 -76 297 -91 412
-9 70 -19 138 -21 149 -4 22 -30 36 -141 75 l-52 18 -88 -66z"/>
<path d="M2449 2285 c-20 -7 -50 -20 -67 -29 l-32 -16 21 -53 c11 -28 23 -55
27 -59 8 -8 154 -39 160 -34 6 7 -17 118 -34 163 -18 47 -22 48 -75 28z"/>
<path d="M2055 2148 c-9 -29 -93 -523 -89 -527 21 -21 187 139 227 220 37 73
45 144 22 190 -41 80 -146 157 -160 117z"/>
<path d="M3844 2030 c-44 -21 -96 -53 -116 -70 -37 -31 -38 -33 -38 -100 l0
-69 66 50 c73 55 138 90 202 109 23 7 42 15 42 16 0 10 -63 104 -70 104 -4 0
-43 -18 -86 -40z"/>
<path d="M2430 2027 c0 -26 44 -185 55 -196 11 -11 16 -9 29 17 9 17 22 58 30
92 l14 61 -24 10 c-33 12 -104 23 -104 16z"/>
<path d="M727 1878 c-24 -29 -56 -70 -71 -90 l-27 -36 58 -12 c157 -30 363
-112 482 -192 78 -52 252 -237 296 -313 l40 -69 11 114 11 115 -53 65 c-123
152 -309 309 -459 387 -84 43 -191 83 -224 83 -11 0 -38 -22 -64 -52z"/>
<path d="M5682 1847 c-13 -46 -25 -92 -28 -103 -4 -18 2 -19 82 -21 74 -2 181
-23 247 -48 15 -7 17 1 17 82 l0 90 -77 26 c-64 22 -193 56 -213 57 -3 0 -15
-38 -28 -83z"/>
<path d="M3971 1850 c-73 -26 -153 -75 -213 -130 -47 -42 -49 -47 -43 -81 12
-66 18 -67 85 -6 73 66 180 121 270 138 36 7 67 14 69 15 2 2 -12 21 -30 43
-39 47 -58 50 -138 21z"/>
<path d="M2326 1786 c-24 -48 -26 -61 -20 -124 6 -65 8 -70 25 -61 22 11 119
126 119 140 0 11 -79 99 -90 99 -4 0 -20 -24 -34 -54z"/>
<path d="M4126 1684 c-116 -25 -275 -111 -340 -183 -19 -21 -19 -22 4 -71 13
-28 25 -50 27 -50 2 0 32 28 67 63 113 112 240 170 406 185 l85 7 -57 33 c-64
36 -89 38 -192 16z"/>
<path d="M541 1598 c-37 -77 -86 -227 -77 -236 2 -2 23 10 46 27 23 16 65 37
93 47 29 9 53 18 55 19 2 2 -8 41 -22 86 -13 46 -27 96 -31 112 -3 15 -10 27
-15 27 -5 0 -27 -37 -49 -82z"/>
<path d="M632 1662 c27 -39 495 -478 597 -561 l104 -84 34 19 c20 10 38 24 40
31 7 19 -32 107 -82 183 -128 196 -397 366 -674 425 -32 7 -33 6 -19 -13z"/>
<path d="M2145 1557 c-38 -37 -87 -80 -108 -94 l-38 -26 -28 27 -28 27 -6 -23
c-3 -13 -9 -46 -13 -74 l-6 -52 78 -62 c122 -96 364 -254 374 -244 4 5 15 32
23 61 l16 52 -32 20 -32 21 32 0 c20 0 36 6 42 18 13 25 29 115 37 217 l7 89
-74 -64 c-41 -35 -107 -85 -148 -112 -83 -54 -65 -58 -174 36 l-56 49 77 32
c117 48 129 58 134 113 3 26 2 49 -1 52 -3 3 -37 -26 -76 -63z"/>
<path d="M4188 1545 c-32 -8 -84 -28 -117 -44 -59 -30 -173 -126 -192 -164
-11 -19 -8 -19 98 -12 61 4 177 14 259 23 l148 17 14 50 c7 28 20 67 29 88 9
20 13 40 10 43 -14 14 -193 13 -249 -1z"/>
<path d="M5786 1456 c-15 -12 -119 -257 -112 -263 2 -2 20 -1 40 2 24 5 37 14
42 29 3 11 30 69 59 127 l53 107 -35 4 c-19 2 -40 -1 -47 -6z"/>
<path d="M5911 1368 c-22 -40 -49 -94 -60 -120 l-20 -47 47 -10 c26 -5 54 -12
62 -16 11 -4 22 8 38 40 28 58 33 209 6 219 -28 11 -32 7 -73 -66z"/>
<path d="M645 1349 c-27 -11 -81 -41 -120 -68 l-70 -47 -3 -72 c-2 -40 0 -72
3 -72 3 0 31 21 63 47 52 43 204 123 232 123 6 0 10 3 8 8 -24 51 -53 102 -57
101 -4 0 -28 -9 -56 -20z"/>
<path d="M3880 1279 c0 -18 127 -138 188 -177 113 -73 341 -152 440 -152 l44
0 -47 52 c-49 54 -74 97 -94 161 l-13 37 -114 0 c-132 0 -239 19 -336 60 -38
15 -68 24 -68 19z"/>
<path d="M743 1151 c-75 -27 -142 -66 -212 -122 -64 -53 -67 -62 -40 -137 8
-22 10 -21 51 19 88 85 191 140 302 161 l64 12 -35 43 c-40 49 -54 51 -130 24z"/>
<path d="M945 993 c-126 -18 -271 -84 -359 -166 l-56 -52 20 -45 c12 -24 23
-46 25 -48 2 -3 38 27 79 65 123 115 259 173 413 176 40 1 73 3 73 4 0 1 -26
18 -59 37 -57 35 -71 38 -136 29z"/>
<path d="M965 846 c-83 -19 -140 -46 -211 -99 -63 -46 -122 -113 -110 -124 7
-7 250 10 409 28 93 11 98 13 103 38 3 14 15 54 26 89 11 35 18 65 16 67 -13
13 -179 13 -233 1z"/>
<path d="M650 575 c0 -4 16 -27 36 -51 79 -96 224 -182 404 -238 77 -25 209
-49 219 -40 2 2 -15 24 -38 49 -37 40 -83 123 -105 189 -6 17 -14 18 -71 13
-122 -12 -289 19 -427 78 -10 4 -18 4 -18 0z"/>
</g>
</svg>
