<svg width="16" height="12" viewBox="0 0 16 12" fill="none" xmlns="http://www.w3.org/2000/svg">
<path d="M14.1679 1.333H6.87488L5.68789 0.146C5.59389 0.0529999 5.46689 0 5.33389 0H1.83389C0.822885 0 0.00088501 0.822 0.00088501 1.833V10.166C0.00088501 11.178 0.822885 12 1.83389 12H14.1669C15.1789 12 16.0009 11.178 16.0009 10.167V3.167C16.0009 2.156 15.1789 1.333 14.1679 1.333ZM5.50089 7.667C5.77689 7.667 6.00089 7.891 6.00089 8.167C6.00089 8.443 5.77689 8.667 5.50089 8.667H3.83389C3.65689 8.667 3.49289 8.573 3.40289 8.42C3.31289 8.268 3.31088 8.079 3.39688 7.924L4.65088 5.667H3.83389C3.55789 5.667 3.33389 5.443 3.33389 5.167C3.33389 4.891 3.55789 4.667 3.83389 4.667H5.50089C5.67789 4.667 5.84188 4.761 5.93188 4.914C6.02188 5.066 6.02389 5.255 5.93789 5.41L4.68388 7.667H5.50089ZM8.16788 8.167C8.16788 8.443 7.94388 8.667 7.66788 8.667C7.39188 8.667 7.16788 8.443 7.16788 8.167V5.167C7.16788 4.891 7.39188 4.667 7.66788 4.667C7.94388 4.667 8.16788 4.891 8.16788 5.167V8.167ZM10.6679 7.333H10.3349V8.166C10.3349 8.442 10.1109 8.666 9.83488 8.666C9.55888 8.666 9.33488 8.442 9.33488 8.166V5.166C9.33488 4.89 9.55888 4.666 9.83488 4.666H10.6679C11.4029 4.667 12.0009 5.265 12.0009 6C12.0009 6.735 11.4029 7.333 10.6679 7.333Z" fill="white"/>
</svg>
